<?xml version="1.0" encoding="UTF-8"?>
<svg height="128px" viewBox="0 0 128 128" width="128px" xmlns="http://www.w3.org/2000/svg" xmlns:xlink="http://www.w3.org/1999/xlink">
    <filter id="a" height="100%" width="100%" x="0%" y="0%">
        <feColorMatrix color-interpolation-filters="sRGB" values="0 0 0 0 1 0 0 0 0 1 0 0 0 0 1 0 0 0 1 0"/>
    </filter>
    <linearGradient id="b" gradientTransform="matrix(120 0 0 112 4 8)" gradientUnits="userSpaceOnUse" x1="0" x2="1" y1="1" y2="1">
        <stop offset="0" stop-color="#688668"/>
        <stop offset="0.08846" stop-color="#7da47d"/>
        <stop offset="0.27807" stop-color="#588258"/>
        <stop offset="0.70167" stop-color="#588258"/>
        <stop offset="0.90536" stop-color="#7da47d"/>
        <stop offset="1" stop-color="#688668"/>
    </linearGradient>
    <linearGradient id="c" gradientTransform="matrix(120 0 0 112 4 4)" gradientUnits="userSpaceOnUse" x1="0.66947" x2="1" y1="0.3872" y2="0.93556">
        <stop offset="0" stop-color="#6c9c6c"/>
        <stop offset="1" stop-color="#3e603e"/>
    </linearGradient>
    <radialGradient id="d" cx="52.28233" cy="61.52507" gradientUnits="userSpaceOnUse" r="46.56528">
        <stop offset="0" stop-color="#e4f3c9"/>
        <stop offset="1" stop-color="#c0dcb6"/>
    </radialGradient>
    <radialGradient id="e" cx="94.60128" cy="83.2296" gradientUnits="userSpaceOnUse" r="26.01664">
        <stop offset="0" stop-color="#87b387"/>
        <stop offset="1" stop-color="#6c9c6c"/>
    </radialGradient>
    <linearGradient id="f" gradientUnits="userSpaceOnUse">
        <stop offset="0" stop-color="#c9eac4"/>
        <stop offset="1" stop-color="#a5d29f"/>
    </linearGradient>
    <radialGradient id="g" cx="89" cy="13.92236" r="9" xlink:href="#f"/>
    <radialGradient id="h" cx="30" cy="13.92236" r="9" xlink:href="#f"/>
    <clipPath id="i">
        <rect height="128" width="128"/>
    </clipPath>
    <clipPath id="j">
        <rect height="128" width="128"/>
    </clipPath>
    <mask id="k">
        <g filter="url(#a)">
            <g clip-path="url(#j)" filter="url(#a)">
                <g clip-path="url(#i)">
                    <path d="m 60 8 h 8 c 30.929688 0 56 25.070312 56 56 v 36.769531 c 0 6.6875 -0.695312 9.113281 -2.003906 11.558594 c -1.308594 2.441406 -3.226563 4.359375 -5.667969 5.667969 c -2.445313 1.308594 -4.871094 2.003906 -11.558594 2.003906 h -81.539062 c -6.6875 0 -9.113281 -0.695312 -11.558594 -2.003906 c -2.441406 -1.308594 -4.359375 -3.226563 -5.667969 -5.667969 c -1.308594 -2.445313 -2.003906 -4.871094 -2.003906 -11.558594 v -36.769531 c 0 -30.929688 25.070312 -56 56 -56 z m 0 0" fill="url(#b)" fill-rule="evenodd"/>
                    <path d="m 60 4 h 8 c 30.929688 0 56 25.070312 56 56 v 36.769531 c 0 6.6875 -0.695312 9.113281 -2.003906 11.558594 c -1.308594 2.441406 -3.226563 4.359375 -5.667969 5.667969 c -2.445313 1.308594 -4.871094 2.003906 -11.558594 2.003906 h -81.539062 c -6.6875 0 -9.113281 -0.695312 -11.558594 -2.003906 c -2.441406 -1.308594 -4.359375 -3.226563 -5.667969 -5.667969 c -1.308594 -2.445313 -2.003906 -4.871094 -2.003906 -11.558594 v -36.769531 c 0 -30.929688 25.070312 -56 56 -56 z m 0 0" fill="url(#c)" fill-rule="evenodd"/>
                    <path d="m 47 19 c 0 8.835938 -7.164062 16 -16 16 s -16 -7.164062 -16 -16 s 7.164062 -16 16 -16 s 16 7.164062 16 16 z m 0 0" fill="#6c9c6c" fill-rule="evenodd"/>
                    <path d="m 104 19 c 0 8.835938 -7.164062 16 -16 16 s -16 -7.164062 -16 -16 s 7.164062 -16 16 -16 s 16 7.164062 16 16 z m 0 0" fill="#6c9c6c" fill-rule="evenodd"/>
                    <path d="m 56.5 29 c 22.367188 0 40.5 18.132812 40.5 40.5 v 46.5 h -37.5 c -8.753906 0 -16.507812 -1.914062 -22.953125 -5.441406 c -6.445313 -3.523438 -11.582031 -8.660156 -15.105469 -15.105469 c -3.527344 -6.445313 -5.441406 -14.199219 -5.441406 -22.953125 v -3 c 0 -22.367188 18.132812 -40.5 40.5 -40.5 z m 0 0" fill="#496d49" fill-rule="evenodd"/>
                    <path d="m 56.5 35 c 22.367188 0 40.5 18.132812 40.5 40.5 v 40.5 h -40.5 c -22.367188 0 -40.5 -18.132812 -40.5 -40.5 s 18.132812 -40.5 40.5 -40.5 z m 0 0" fill="url(#d)" fill-rule="evenodd"/>
                    <path d="m 124 64 v 32.769531 c 0 6.6875 -0.695312 9.113281 -2.003906 11.558594 c -1.308594 2.441406 -3.226563 4.359375 -5.667969 5.667969 c -2.445313 1.308594 -4.871094 2.003906 -11.558594 2.003906 h -32.769531 c 0 -28.71875 23.28125 -52 52 -52 z m 0 0" fill="url(#e)" fill-rule="evenodd"/>
                    <path d="m 98 17 c 0 4.96875 -4.03125 9 -9 9 s -9 -4.03125 -9 -9 s 4.03125 -9 9 -9 s 9 4.03125 9 9 z m 0 0" fill="url(#g)" fill-rule="evenodd"/>
                    <path d="m 39 17 c 0 4.96875 -4.03125 9 -9 9 s -9 -4.03125 -9 -9 s 4.03125 -9 9 -9 s 9 4.03125 9 9 z m 0 0" fill="url(#h)" fill-rule="evenodd"/>
                    <path d="m 83.5 17 c 0 -1.378906 1.121094 -2.5 2.5 -2.5 h 5 c 1.378906 0 2.5 1.121094 2.5 2.5 s -1.121094 2.5 -2.5 2.5 h -5 c -1.378906 0 -2.5 -1.121094 -2.5 -2.5 z m 0 0" fill="#3d3846" fill-rule="evenodd"/>
                    <path d="m 24.5 17 c 0 -1.378906 1.121094 -2.5 2.5 -2.5 h 5 c 1.378906 0 2.5 1.121094 2.5 2.5 s -1.121094 2.5 -2.5 2.5 h -5 c -1.378906 0 -2.5 -1.121094 -2.5 -2.5 z m 0 0" fill="#3d3846" fill-rule="evenodd"/>
                    <path d="m 91 16 c 0 0.550781 -0.449219 1 -1 1 s -1 -0.449219 -1 -1 s 0.449219 -1 1 -1 s 1 0.449219 1 1 z m 0 0" fill="#ffffff" fill-rule="evenodd"/>
                    <path d="m 32 16 c 0 0.550781 -0.449219 1 -1 1 s -1 -0.449219 -1 -1 s 0.449219 -1 1 -1 s 1 0.449219 1 1 z m 0 0" fill="#ffffff" fill-rule="evenodd"/>
                </g>
            </g>
        </g>
    </mask>
    <mask id="l">
        <g filter="url(#a)">
            <rect fill-opacity="0.8" height="184.32" width="184.32" x="-28.16" y="-28.16"/>
        </g>
    </mask>
    <linearGradient id="m" gradientTransform="matrix(0 0.37 -0.98462 0 295.38501 -30.360001)" gradientUnits="userSpaceOnUse" x1="300" x2="428" y1="235" y2="235">
        <stop offset="0" stop-color="#f9f06b"/>
        <stop offset="1" stop-color="#f5c211"/>
    </linearGradient>
    <clipPath id="n">
        <rect height="128" width="128"/>
    </clipPath>
    <clipPath id="o">
        <rect height="128" width="128"/>
    </clipPath>
    <g fill-rule="evenodd">
        <path d="m 60 8 h 8 c 30.929688 0 56 25.070312 56 56 v 36.769531 c 0 6.6875 -0.695312 9.113281 -2.003906 11.558594 c -1.308594 2.441406 -3.226563 4.359375 -5.667969 5.667969 c -2.445313 1.308594 -4.871094 2.003906 -11.558594 2.003906 h -81.539062 c -6.6875 0 -9.113281 -0.695312 -11.558594 -2.003906 c -2.441406 -1.308594 -4.359375 -3.226563 -5.667969 -5.667969 c -1.308594 -2.445313 -2.003906 -4.871094 -2.003906 -11.558594 v -36.769531 c 0 -30.929688 25.070312 -56 56 -56 z m 0 0" fill="url(#b)"/>
        <path d="m 60 4 h 8 c 30.929688 0 56 25.070312 56 56 v 36.769531 c 0 6.6875 -0.695312 9.113281 -2.003906 11.558594 c -1.308594 2.441406 -3.226563 4.359375 -5.667969 5.667969 c -2.445313 1.308594 -4.871094 2.003906 -11.558594 2.003906 h -81.539062 c -6.6875 0 -9.113281 -0.695312 -11.558594 -2.003906 c -2.441406 -1.308594 -4.359375 -3.226563 -5.667969 -5.667969 c -1.308594 -2.445313 -2.003906 -4.871094 -2.003906 -11.558594 v -36.769531 c 0 -30.929688 25.070312 -56 56 -56 z m 0 0" fill="url(#c)"/>
        <path d="m 47 19 c 0 8.835938 -7.164062 16 -16 16 s -16 -7.164062 -16 -16 s 7.164062 -16 16 -16 s 16 7.164062 16 16 z m 0 0" fill="#6c9c6c"/>
        <path d="m 104 19 c 0 8.835938 -7.164062 16 -16 16 s -16 -7.164062 -16 -16 s 7.164062 -16 16 -16 s 16 7.164062 16 16 z m 0 0" fill="#6c9c6c"/>
        <path d="m 56.5 29 c 22.367188 0 40.5 18.132812 40.5 40.5 v 46.5 h -37.5 c -8.753906 0 -16.507812 -1.914062 -22.953125 -5.441406 c -6.445313 -3.523438 -11.582031 -8.660156 -15.105469 -15.105469 c -3.527344 -6.445313 -5.441406 -14.199219 -5.441406 -22.953125 v -3 c 0 -22.367188 18.132812 -40.5 40.5 -40.5 z m 0 0" fill="#496d49"/>
        <path d="m 56.5 35 c 22.367188 0 40.5 18.132812 40.5 40.5 v 40.5 h -40.5 c -22.367188 0 -40.5 -18.132812 -40.5 -40.5 s 18.132812 -40.5 40.5 -40.5 z m 0 0" fill="url(#d)"/>
        <path d="m 124 64 v 32.769531 c 0 6.6875 -0.695312 9.113281 -2.003906 11.558594 c -1.308594 2.441406 -3.226563 4.359375 -5.667969 5.667969 c -2.445313 1.308594 -4.871094 2.003906 -11.558594 2.003906 h -32.769531 c 0 -28.71875 23.28125 -52 52 -52 z m 0 0" fill="url(#e)"/>
        <path d="m 98 17 c 0 4.96875 -4.03125 9 -9 9 s -9 -4.03125 -9 -9 s 4.03125 -9 9 -9 s 9 4.03125 9 9 z m 0 0" fill="url(#g)"/>
        <path d="m 39 17 c 0 4.96875 -4.03125 9 -9 9 s -9 -4.03125 -9 -9 s 4.03125 -9 9 -9 s 9 4.03125 9 9 z m 0 0" fill="url(#h)"/>
        <path d="m 83.5 17 c 0 -1.378906 1.121094 -2.5 2.5 -2.5 h 5 c 1.378906 0 2.5 1.121094 2.5 2.5 s -1.121094 2.5 -2.5 2.5 h -5 c -1.378906 0 -2.5 -1.121094 -2.5 -2.5 z m 0 0" fill="#3d3846"/>
        <path d="m 24.5 17 c 0 -1.378906 1.121094 -2.5 2.5 -2.5 h 5 c 1.378906 0 2.5 1.121094 2.5 2.5 s -1.121094 2.5 -2.5 2.5 h -5 c -1.378906 0 -2.5 -1.121094 -2.5 -2.5 z m 0 0" fill="#3d3846"/>
        <path d="m 91 16 c 0 0.550781 -0.449219 1 -1 1 s -1 -0.449219 -1 -1 s 0.449219 -1 1 -1 s 1 0.449219 1 1 z m 0 0" fill="#ffffff"/>
        <path d="m 32 16 c 0 0.550781 -0.449219 1 -1 1 s -1 -0.449219 -1 -1 s 0.449219 -1 1 -1 s 1 0.449219 1 1 z m 0 0" fill="#ffffff"/>
    </g>
    <g mask="url(#k)">
        <g clip-path="url(#o)">
            <g mask="url(#l)">
                <g clip-path="url(#n)">
                    <path d="m 128 80.640625 v 47.359375 h -128 v -47.359375 z m 0 0" fill="url(#m)"/>
                    <path d="m 13.308594 80.640625 l 47.355468 47.359375 h 21.214844 l -47.359375 -47.359375 z m 42.421875 0 l 47.363281 47.359375 h 21.214844 l -47.363282 -47.359375 z m 42.429687 0 l 29.839844 29.839844 v -21.210938 l -8.628906 -8.628906 z m -98.160156 7.90625 v 21.214844 l 18.238281 18.238281 h 21.214844 z m 0 0"/>
                </g>
            </g>
        </g>
    </g>
</svg>
