<svg xmlns="http://www.w3.org/2000/svg" width="114" height="96" viewBox="0 0 114 96"><g fill="none" fill-rule="evenodd" stroke="#000" transform="translate(10.213 5.85)"><path fill="#000" stroke-width=".6" d="M9.561 0C13.364 3.364 10.538 3.897 10.248 3.794 9.996 3.705 7.268 1.888 9.306.136L9.561 0 9.561 0ZM60.587 5.271C60.289.668 58.106 3.397 58.089 3.635 57.76 8.098 60.399 5.553 60.577 5.451 60.577 5.451 60.591 5.331 60.587 5.271L60.587 5.271Z"/><path stroke-width="3" d="M1.42108547e-14,21.695 C4.779,17.325 9.205,16.117 12.961,15.279 C24.448,12.716 45.092,16.826 51.807,19.085 C56.578,20.691 57.279,21.076 60.119,23.727 C62.202,25.671 62.817,26.479 63.99,28.802"/></g></svg>