<svg xmlns="http://www.w3.org/2000/svg" width="114" height="96" viewBox="0 0 114 96"><path fill="#FFF" fill-rule="evenodd" d="M71.378,76.407 C73.983,75.306 78.838,69.297 79.81,65.144 C83.17,50.787 84.567,45.793 76.821,29.941 C71.842,19.752 57.142,19.562 53.72,18.607 C48.145,17.05 35.539,12.517 19.58,16.333 C13.083,17.887 6.668,20.429 6.213,30.146 C6.05,33.635 9.738,36.664 11.347,41.266 C15.207,52.301 17.653,50.721 22.706,61.248 C22.803,61.448 29.81,74.865 43.215,77.101 C67.48,81.15 64.256,79.267 68.772,78.032 C69.621,77.8 70.477,76.787 71.378,76.407 L71.378,76.407 Z M64.075,10.16 L64.068,10.357 C62.211,14.989 76.186,15.205 74.636,11.359 C71.314,3.11 65.418,7.482 64.075,10.16 L64.075,10.16 Z M26.484,8.129 L26.427,8.052 C25.822,4.555 22.322,0.541 16.105,5.461 C10.49,9.905 19.792,14.723 26.484,8.129 Z"/></svg>