<svg xmlns="http://www.w3.org/2000/svg" width="128" height="128" viewBox="0 0 128 128"><path fill="#3D3846" fill-rule="evenodd" d="M83.5,17 C83.5,15.6192881 84.6192881,14.5 86,14.5 L91,14.5 C92.3807119,14.5 93.5,15.6192881 93.5,17 C93.5,18.3807119 92.3807119,19.5 91,19.5 L86,19.5 C84.6192881,19.5 83.5,18.3807119 83.5,17 Z M24.5,17 C24.5,15.6192881 25.6192881,14.5 27,14.5 L32,14.5 C33.3807119,14.5 34.5,15.6192881 34.5,17 C34.5,18.3807119 33.3807119,19.5 32,19.5 L27,19.5 C25.6192881,19.5 24.5,18.3807119 24.5,17 Z"/></svg>