<svg xmlns="http://www.w3.org/2000/svg" width="114" height="96" viewBox="0 0 114 96"><path fill-rule="evenodd" d="M23.938,94.543 C5.92,90.383 -1.048,78.193 0.512,67.748 C1.848,58.803 2.413,58.915 2.17,49.93 C1.943,41.537 8.306,39.91 7.42,37.607 C6.332,34.778 1.716,28.961 8.433,18.663 C9.48,17.059 14.073,13.545 13.072,12.704 C7.589,8.096 12.71,-0.367 22.847,0.342 C24.846,0.481 29.509,4.513 30.026,4.959 C33.867,8.28 43.033,3.285 53.527,6.703 C60.072,8.834 60.405,7.925 63.113,5.631 C77.073,-6.194 76.164,9.873 79.208,12.658 C83.143,16.257 85.054,14.895 87.994,19.248 C90.037,22.271 98.084,21.144 100.558,28.908 C103.81,39.116 110.699,43.146 110.895,50.81 C110.997,54.782 116.883,67.95 108.247,76.903 C103.663,81.656 101.389,79.008 96.827,85.803 C95.782,87.36 91.108,90.513 90.255,87.291 C88.288,79.857 78.889,100.299 77.755,92.467 C77.586,91.294 82.505,84.751 76.561,88.961 C74.193,90.638 65.587,95.164 65.047,94.97 C62.325,93.992 72.126,85.229 70.052,84.991 C68.312,84.792 68.145,84.728 60.615,89.776 C58.026,86.142 68.331,80.398 64.209,80.921 C58.488,81.647 58.111,81.164 51.623,80.457 C41.214,79.323 41.546,80.124 38.97,81.116 C44.076,85.391 47.061,87.05 45.891,89.043 C45.144,90.314 43.063,89.511 31.794,86.291 C33.419,87.983 42.264,94.979 39.082,95.306 C34.027,95.825 30.457,91.796 21.569,88.763 C22.582,91.023 22.722,90.816 24.184,92.88 C24.874,93.853 25.042,94.203 23.895,94.579 L23.938,94.543 Z"/></svg>