<svg xmlns="http://www.w3.org/2000/svg" width="128" height="128" viewBox="0 0 128 128"><path fill="#6C9C6C" fill-rule="evenodd" d="M88,3 C96.5560304,3 103.543492,9.71584156 103.978517,18.1636574 C116.243141,28.7971213 124,44.4927049 124,62 L124,94.361148 C124,103.276335 123.071744,106.509198 121.328673,109.768457 C119.585602,113.027716 117.027716,115.585602 113.768457,117.328673 C110.509198,119.071744 107.276335,120 98.361148,120 L29.638852,120 C20.7236646,120 17.4908022,119.071744 14.231543,117.328673 C10.9722837,115.585602 8.41439796,113.027716 6.67132704,109.768457 C4.9605352,106.569554 4.03465928,103.39608 4.00095428,94.8506264 L4,62 C4,48.3676213 8.70317431,35.8337278 16.5754415,25.932401 C15.5661232,23.8360721 15,21.4841486 15,19 C15,10.163444 22.163444,3 31,3 C35.321173,3 39.2422518,4.71300688 42.1212076,7.49699191 C48.3213394,5.23421116 55.016537,4 62,4 L66,4 C70.5914464,4 75.0582836,4.53351524 79.3419003,5.54193432 C81.8370155,3.93387159 84.8094491,3 88,3 Z"/></svg>